<svg width="106" height="105" viewBox="0 0 106 105" fill="none" xmlns="http://www.w3.org/2000/svg">
<g clip-path="url(#clip0_18_319)">
<path d="M55.8917 1.58862H31.8034L19.7614 22.448L31.8034 43.3074H55.8917L67.9337 22.448L55.8917 1.58862Z" stroke="#BDD3E0" stroke-width="3.17518" stroke-miterlimit="10"/>
<path d="M55.8917 43.3076H31.8034L19.7614 64.167L31.8034 85.0287H55.8917L67.9337 64.167L55.8917 43.3076Z" stroke="#BDD3E0" stroke-width="3.17518" stroke-miterlimit="10"/>
<path d="M92.1229 22.448H68.0345L55.9926 43.3074L68.0345 64.1668H92.1229L104.165 43.3074L92.1229 22.448Z" stroke="#BDD3E0" stroke-width="3.17518" stroke-miterlimit="10"/>
<path d="M19.7614 22.448H0" stroke="#BDD3E0" stroke-width="3.17518" stroke-miterlimit="10"/>
<path d="M31.8033 85.0286L21.2806 103.513" stroke="#BDD3E0" stroke-width="3.17518" stroke-miterlimit="10"/>
<path d="M92.1228 22.4482L104.165 2.25659" stroke="#BDD3E0" stroke-width="3.17518" stroke-miterlimit="10"/>
<path d="M35.4177 79.1801C36.284 79.1801 36.9863 78.4778 36.9863 77.6115C36.9863 76.7452 36.284 76.043 35.4177 76.043C34.5514 76.043 33.8492 76.7452 33.8492 77.6115C33.8492 78.4778 34.5514 79.1801 35.4177 79.1801Z" fill="#BDD3E0"/>
<path d="M52.8376 72.0209C53.7039 72.0209 54.4061 71.3186 54.4061 70.4523C54.4061 69.5861 53.7039 68.8838 52.8376 68.8838C51.9713 68.8838 51.269 69.5861 51.269 70.4523C51.269 71.3186 51.9713 72.0209 52.8376 72.0209Z" fill="#BDD3E0"/>
<path d="M50.8589 64.6464C51.7252 64.6464 52.4275 63.9441 52.4275 63.0778C52.4275 62.2115 51.7252 61.5093 50.8589 61.5093C49.9927 61.5093 49.2904 62.2115 49.2904 63.0778C49.2904 63.9441 49.9927 64.6464 50.8589 64.6464Z" fill="#BDD3E0"/>
<path d="M40.0696 69.1505C40.9359 69.1505 41.6381 68.4483 41.6381 67.582C41.6381 66.7157 40.9359 66.0134 40.0696 66.0134C39.2033 66.0134 38.501 66.7157 38.501 67.582C38.501 68.4483 39.2033 69.1505 40.0696 69.1505Z" fill="#BDD3E0"/>
<path d="M50.4959 81.5553C51.3622 81.5553 52.0645 80.853 52.0645 79.9868C52.0645 79.1205 51.3622 78.4182 50.4959 78.4182C49.6296 78.4182 48.9274 79.1205 48.9274 79.9868C48.9274 80.853 49.6296 81.5553 50.4959 81.5553Z" fill="#BDD3E0"/>
<path d="M44.1613 75.7831C45.0276 75.7831 45.7299 75.0808 45.7299 74.2145C45.7299 73.3483 45.0276 72.646 44.1613 72.646C43.295 72.646 42.5928 73.3483 42.5928 74.2145C42.5928 75.0808 43.295 75.7831 44.1613 75.7831Z" fill="#BDD3E0"/>
<path d="M59.5017 66.215C60.3679 66.215 61.0702 65.5127 61.0702 64.6464C61.0702 63.7801 60.3679 63.0779 59.5017 63.0779C58.6354 63.0779 57.9331 63.7801 57.9331 64.6464C57.9331 65.5127 58.6354 66.215 59.5017 66.215Z" fill="#BDD3E0"/>
<path d="M71.4136 58.1974C72.2799 58.1974 72.9822 57.4951 72.9822 56.6288C72.9822 55.7626 72.2799 55.0603 71.4136 55.0603C70.5474 55.0603 69.8451 55.7626 69.8451 56.6288C69.8451 57.4951 70.5474 58.1974 71.4136 58.1974Z" fill="#BDD3E0"/>
<path d="M81.1296 56.9762C81.9959 56.9762 82.6981 56.2739 82.6981 55.4077C82.6981 54.5414 81.9959 53.8391 81.1296 53.8391C80.2633 53.8391 79.561 54.5414 79.561 55.4077C79.561 56.2739 80.2633 56.9762 81.1296 56.9762Z" fill="#BDD3E0"/>
<path d="M65.8879 49.389C66.7542 49.389 67.4564 48.6868 67.4564 47.8205C67.4564 46.9542 66.7542 46.252 65.8879 46.252C65.0216 46.252 64.3193 46.9542 64.3193 47.8205C64.3193 48.6868 65.0216 49.389 65.8879 49.389Z" fill="#BDD3E0"/>
<path d="M79.5633 45.2972C80.4296 45.2972 81.1318 44.595 81.1318 43.7287C81.1318 42.8624 80.4296 42.1602 79.5633 42.1602C78.697 42.1602 77.9948 42.8624 77.9948 43.7287C77.9948 44.595 78.697 45.2972 79.5633 45.2972Z" fill="#BDD3E0"/>
</g>
<defs>
<clipPath id="clip0_18_319">
<rect width="106" height="104.297" fill="white"/>
</clipPath>
</defs>
</svg>
