<svg width="138" height="101" viewBox="0 0 138 101" fill="none" xmlns="http://www.w3.org/2000/svg">
<g clip-path="url(#clip0_18_289)">
<path d="M118.466 45.0143C114.518 45.0143 109.782 47.2105 106.104 50.7482C104.399 52.3886 102.994 54.2415 101.914 56.245C101.647 56.7416 100.916 56.6823 100.741 56.1462C93.7491 35.0781 71.5594 2.39635 70.4452 0.763373C69.751 -0.254458 68.2465 -0.254458 67.5523 0.763373C66.4381 2.39635 44.2484 35.0781 37.257 56.1462C37.0792 56.6823 36.3504 56.7416 36.0836 56.245C35.004 54.2415 33.5983 52.3886 31.8937 50.7482C28.2176 47.2105 23.4817 45.0143 19.5315 45.0143H1.75156C0.785607 45.0143 0 45.7974 0 46.7658C0 47.7318 0.783136 48.5174 1.75156 48.5174H19.5339C24.8405 48.5174 35.167 54.869 35.167 66.5098C35.167 85.1667 50.3455 100.343 69 100.343C87.6545 100.343 102.833 85.1642 102.833 66.5098C102.833 61.5096 104.856 56.8083 108.532 53.273C111.536 50.3851 115.435 48.5174 118.466 48.5174H136.248C137.214 48.5174 138 47.7343 138 46.7658C138 45.7999 137.217 45.0143 136.248 45.0143H118.466ZM69 96.8396C52.275 96.8396 38.6677 83.2323 38.6677 66.5073C38.6677 52.0403 61.5096 16.2655 68.4639 5.70924C68.7184 5.32385 69.2841 5.32385 69.5361 5.70924C76.4904 16.2655 99.3323 52.0403 99.3323 66.5073C99.3323 83.2323 85.725 96.8396 69 96.8396Z" fill="#BDD3E0"/>
<path d="M61.2501 47.3465V56.5959C61.2501 56.8899 61.013 57.1271 60.719 57.1271H51.4696C50.5036 57.1271 49.718 57.9102 49.718 58.8786V69.719C49.718 70.685 50.5012 71.4706 51.4696 71.4706H60.719C61.013 71.4706 61.2501 71.7078 61.2501 72.0017V81.2512C61.2501 82.2171 62.0333 83.0027 63.0017 83.0027H73.8421C74.808 83.0027 75.5936 82.2196 75.5936 81.2512V72.0017C75.5936 71.7078 75.8308 71.4706 76.1248 71.4706H85.3742C86.3401 71.4706 87.1258 70.6875 87.1258 69.719V58.8786C87.1258 57.9127 86.3426 57.1271 85.3742 57.1271H76.1248C75.8308 57.1271 75.5936 56.8899 75.5936 56.5959V47.3465C75.5936 46.3806 74.8105 45.595 73.8421 45.595H63.0017C62.0357 45.595 61.2501 46.3781 61.2501 47.3465ZM83.6202 61.1614V67.4363C83.6202 67.7303 83.383 67.9675 83.089 67.9675H73.8396C72.8737 67.9675 72.088 68.7506 72.088 69.719V78.9684C72.088 79.2624 71.8509 79.4996 71.5569 79.4996H65.2819C64.9879 79.4996 64.7508 79.2624 64.7508 78.9684V69.719C64.7508 68.7531 63.9676 67.9675 62.9992 67.9675H53.7498C53.4558 67.9675 53.2187 67.7303 53.2187 67.4363V61.1614C53.2187 60.8674 53.4558 60.6302 53.7498 60.6302H62.9992C63.9652 60.6302 64.7508 59.8471 64.7508 58.8786V49.6292C64.7508 49.3353 64.9879 49.0981 65.2819 49.0981H71.5569C71.8509 49.0981 72.088 49.3353 72.088 49.6292V58.8786C72.088 59.8446 72.8712 60.6302 73.8396 60.6302H83.089C83.383 60.6302 83.6202 60.8674 83.6202 61.1614Z" fill="#BDD3E0"/>
</g>
<defs>
<clipPath id="clip0_18_289">
<rect width="138" height="100.343" fill="white"/>
</clipPath>
</defs>
</svg>
