<svg width="122" height="100" viewBox="0 0 122 100" fill="none" xmlns="http://www.w3.org/2000/svg">
<g clip-path="url(#clip0_18_292)">
<path d="M115.655 95.5401C81.5534 95.5098 47.4591 95.5174 13.3571 95.5174C10.0729 95.5174 6.78857 95.4946 3.50429 95.5098C1.92662 95.5174 0.295854 95.6311 0.288269 97.7777C0.288269 99.9546 1.94937 99.9849 3.51187 100C6.03766 100.023 8.56345 100 11.0892 100C40.8981 99.947 70.6994 99.8939 100.508 99.8408C100.774 99.8484 101.047 99.8635 101.312 99.8711C103.823 99.8711 106.333 99.8711 108.852 99.8711C112.098 99.909 115.36 100.099 118.598 99.9394C121.132 99.8104 122.444 98.6803 120.426 96.1545C118.947 95.085 117.248 95.5629 115.655 95.5553V95.5401Z" fill="#BDD3E0"/>
<path d="M2.44992 4.48291C3.54215 4.49049 4.64197 4.39189 5.74179 4.33879C43.3035 4.33879 80.7839 4.62969 118.34 4.49049C121.177 4.48291 122.55 3.33758 120.305 0.576658C119.167 -0.181837 117.87 0.0305415 116.634 0.0305415C103.914 0.00778664 91.2014 0.0153716 78.4815 0.0153716C54.2855 0.0153716 30.0895 0.0229565 5.89348 0.0457114C3.81935 0.0457114 -0.184267 -0.155071 0.303375 2.95833C0.500584 4.20985 1.42595 4.46774 2.44992 4.48291Z" fill="#BDD3E0"/>
<path d="M3.10985 15.3745C41.6038 14.9349 80.1715 15.0472 118.674 15.2987C120.047 15.3062 121.291 14.9801 121.261 13.2811C121.223 11.4 119.88 11.1573 118.348 11.1649C79.9497 11.3475 41.5201 11.7503 3.12502 11.1118C1.60803 11.089 0.265491 11.3848 0.227567 13.2583C0.182057 15.2304 1.69146 15.4048 3.10985 15.3897V15.3745ZM52.8065 12.0751C52.814 12.0751 52.8216 12.0751 52.8368 12.0751C52.8293 12.0751 52.8065 12.1133 52.8065 12.0751Z" fill="#BDD3E0"/>
<path d="M60.7251 32.7519C58.5483 32.7746 58.4876 35.0653 57.5243 36.3851C54.1186 42.4227 50.6144 48.4072 47.3377 54.5055C44.0003 60.7252 45.6008 68.2798 50.9481 72.6639C56.1818 76.9494 64.7679 77.1618 70.0243 73.1417C75.713 68.788 77.632 61.2258 74.3098 54.8468C71.0483 48.5892 67.4454 42.5061 63.9867 36.3396C62.902 35.126 62.9172 32.7291 60.7251 32.7519ZM70.8814 58.1994C72.7776 62.1739 70.9572 66.9145 67.3316 69.5313C63.2964 72.4439 58.1842 72.4667 54.3007 69.5844C50.4248 66.7021 48.6954 62.045 50.713 57.9263C53.6863 51.8356 57.1602 45.9876 60.7858 39.3735C64.3963 46.0407 67.9157 51.9873 70.8814 58.1994Z" fill="#BDD3E0"/>
<path d="M0.34139 86.9995C0.273125 89.495 2.48035 88.8958 3.967 89.0096C4.79376 89.0702 5.65086 88.7896 6.49279 88.6606L8.74552 88.6151C10.0425 89.3585 11.4609 89.0399 12.8262 89.0399C47.808 89.0626 82.7822 89.0551 117.764 89.0475C119.273 89.0475 121.139 89.275 121.321 87.1968C121.541 84.7847 119.691 84.7696 117.938 84.9061C107.342 84.9061 96.7461 84.9061 86.1499 84.9137C85.3687 84.9137 84.5874 84.9137 83.8062 84.9137C60.8238 84.9137 37.8414 84.9137 14.859 84.9137C11.3016 84.9137 7.7443 84.9213 4.19455 84.9289C2.33623 84.5648 0.417239 84.5041 0.34139 86.992V86.9995Z" fill="#BDD3E0"/>
<path d="M90.7237 73.377C93.879 76.2821 97.6487 76.8434 101.608 75.1595C106.371 73.1419 108.116 69.1674 108.465 63.2815C107.524 56.584 102.7 50.7208 99.0292 44.357C98.2555 43.0145 96.3972 43.4013 95.5932 44.9107C92.8323 50.1443 89.2294 54.976 87.3484 60.604C85.7555 65.3673 86.9388 69.8956 90.7161 73.377H90.7237ZM91.8007 61.2032C93.386 57.6762 95.4188 54.3464 97.5956 50.296C99.5601 53.861 101.153 56.7205 102.715 59.5876C103.019 60.1413 103.292 60.7102 103.497 61.3018C104.763 64.844 103.793 68.4544 101.062 70.472C98.7334 72.1938 96.4048 72.1786 94.099 70.4417C91.5049 68.4848 90.3065 64.5027 91.7931 61.2032H91.8007Z" fill="#BDD3E0"/>
<path d="M114.267 22.7246C113.198 21.0255 111.522 21.8447 110.664 23.392C108.609 27.1314 106.455 30.848 104.771 34.7543C103.095 38.6454 104.377 43.1508 107.373 45.7904C110.005 48.1114 113.016 48.4755 116.148 47.1102C119.941 45.4491 121.238 42.1496 121.511 37.5607C120.608 32.3802 117.309 27.5789 114.26 22.7246H114.267ZM114.95 42.7109C113.714 43.7728 112.136 43.8411 110.786 42.8019C108.677 41.1863 107.896 38.9563 108.852 36.4912C109.792 34.0792 111.127 31.8189 112.728 28.5953C114.343 31.7127 115.648 33.9655 116.694 36.332C117.802 38.835 116.892 41.027 114.95 42.7033V42.7109Z" fill="#BDD3E0"/>
<path d="M84.4964 23.3615C83.6166 21.7839 81.8568 21.0481 80.8784 22.7775C78.0644 27.776 74.325 32.4104 73.8092 37.2875C73.8926 42.5059 75.6448 45.6309 79.3462 47.2314C82.4864 48.5891 85.6341 48.0126 88.1296 45.5854C91.2546 42.5439 91.9903 38.63 90.4582 34.7541C88.8881 30.7872 86.5899 27.1009 84.504 23.3539L84.4964 23.3615ZM84.7998 42.559C83.4876 43.7954 81.8189 43.9319 80.3398 42.7487C78.4133 41.2013 77.5638 39.07 78.4436 36.749C79.3993 34.2232 80.7722 31.8567 82.3954 28.5345C84.0489 31.7657 85.3535 34.0487 86.3926 36.4456C87.4242 38.8045 86.5292 40.9131 84.7922 42.559H84.7998Z" fill="#BDD3E0"/>
<path d="M11.8705 47.2315C15.6554 45.669 17.2407 42.4681 17.3924 37.318C16.7401 32.3346 13.1676 27.503 10.0426 22.5425C9.14754 21.1241 7.46368 21.9053 6.68243 23.3465C4.6345 27.1162 2.33626 30.7949 0.766171 34.7618C-0.773574 38.6453 0.0531854 42.4985 3.14026 45.578C5.65088 48.081 8.74554 48.5361 11.8781 47.2391L11.8705 47.2315ZM4.83171 36.3243C5.87843 33.9654 7.17546 31.7127 8.75313 28.6559C10.3308 31.7127 11.552 33.8896 12.5987 36.1499C13.7516 38.6377 13.0007 40.8525 11.0665 42.5895C9.724 43.7955 8.03256 43.9169 6.60658 42.6881C4.64967 41.0042 3.71672 38.8349 4.83929 36.3167L4.83171 36.3243Z" fill="#BDD3E0"/>
<path d="M41.4745 23.9456C39.821 21.0861 38.2965 21.1468 36.6353 24.0897C34.9667 27.0403 33.3359 30.0212 31.8189 33.0551C29.0807 38.5315 30.2943 43.1962 35.2852 46.8977C38.5998 48.2023 41.8159 48.8849 44.4175 45.5172C47.8687 42.3543 48.7637 38.0916 46.6323 33.5785C45.0774 30.2866 43.2949 27.101 41.4745 23.9456ZM35.2245 36.2105C36.1499 33.8971 37.4773 31.7429 38.6529 29.4523C43.9346 35.4865 45.3212 39.7437 42 42.5C41.5 43 41 43.5 39.8438 43.5603C35.9527 43.2645 33.7455 39.9044 35.2245 36.2181V36.2105Z" fill="#BDD3E0"/>
<path d="M21.4806 45.6764C19.3796 49.2413 17.5213 52.9579 15.4203 56.5305C12.227 61.9689 12.1512 67.1873 16.1484 72.2616C17.0207 73.7407 18.2646 74.7343 19.9333 75.1667C21.7385 75.9707 23.5741 76.5471 25.5613 75.8645C31.47 74.4309 34.504 70.5095 34.4964 64.3581C34.5874 62.7577 34.9363 61.1269 33.882 59.6782C31.4018 55.0362 28.9973 50.3487 26.4184 45.7598C24.8256 42.9231 23.1038 42.9079 21.4731 45.6764H21.4806ZM29.9075 60.5505C29.9682 61.0511 30.0213 61.5441 30.082 62.0447C30.0137 64.0396 31.7734 66.1027 29.8317 68.0217C28.6484 69.1139 27.8217 70.6005 26.2288 71.2377C25.4627 71.4652 24.6967 71.6852 23.9306 71.9127C22.8763 71.8141 21.8068 71.7535 20.9194 71.0708C17.3924 68.2644 16.4746 64.5781 18.3253 60.4974C18.7349 59.5872 19.2431 58.7149 19.7285 57.8502C21.0104 55.5748 22.3074 53.3069 23.832 50.6294C25.44 53.1855 26.866 55.4382 28.2919 57.691C28.8305 58.6467 29.3766 59.6024 29.9151 60.5581L29.9075 60.5505Z" fill="#BDD3E0"/>
</g>
<defs>
<clipPath id="clip0_18_292">
<rect width="121.511" height="100" fill="white"/>
</clipPath>
</defs>
</svg>
