<svg width="161" height="109" viewBox="0 0 161 109" fill="none" xmlns="http://www.w3.org/2000/svg">
<g clip-path="url(#clip0_18_310)">
<path d="M23.1128 17.254C29.5292 17.254 35.9484 17.2166 42.3648 17.2626C50.9372 17.323 55.8386 25.0445 52.3171 32.8695C49.612 38.8834 46.3722 44.722 44.3283 50.9544C39.7057 65.0434 41.0942 78.5776 50.5606 90.456C68.5363 113.002 105.919 107.282 116.254 80.4491C120.586 69.2003 119.85 57.94 115.161 46.9327C113.181 42.2842 110.91 37.7565 108.762 33.18C104.976 25.1106 109.863 17.3 118.789 17.2684C131.746 17.2224 144.705 17.254 157.661 17.254C158.216 17.254 158.926 17.0873 159.288 17.3633C159.958 17.8692 160.844 18.6396 160.855 19.3094C160.867 19.9764 160.019 20.8216 159.337 21.2758C158.851 21.5977 158.024 21.4339 157.348 21.4339C144.515 21.4396 131.68 21.4224 118.847 21.4454C114.814 21.454 112.223 23.4318 111.784 27.0367C111.628 28.3016 111.927 29.7619 112.445 30.9463C114.423 35.4625 116.671 39.8637 118.648 44.3828C124.504 57.7589 125.223 71.3161 118.947 84.6835C112.701 97.9906 101.935 105.807 87.4462 107.989C72.6759 110.211 59.6017 106.339 49.1779 95.3315C40.5652 86.2387 37.2651 75.1279 37.7739 62.7321C38.1332 53.9441 41.2207 46.0156 45.0901 38.297C46.2227 36.0375 47.2576 33.7291 48.327 31.4379C50.8223 26.1024 47.9332 21.4569 42.0486 21.4425C29.2762 21.4137 16.5038 21.4367 3.73141 21.4367C3.11622 21.4367 2.49241 21.4597 1.88297 21.3907C0.649711 21.247 -0.0344731 20.4766 2.35316e-05 19.275C0.0373949 18.0704 0.781948 17.3345 2.00945 17.2799C3.42669 17.2195 4.84681 17.2511 6.26692 17.2511C11.8813 17.2511 17.4956 17.2511 23.1128 17.2511V17.2569V17.254Z" fill="#BDD3E0"/>
<path d="M108.682 65.3942C108.653 80.107 99.589 91.3357 85.5374 93.6211C73.2364 95.6219 61.4846 90.7895 55.7495 79.7879C50.7331 70.1605 51.1241 60.2542 55.4735 50.5319C60.1794 40.0104 65.1958 29.6269 70.0742 19.183C72.7621 13.4307 75.404 7.65539 78.1896 1.94906C78.6122 1.08377 79.6873 0 80.4606 0C81.2339 0 82.3263 1.07802 82.7345 1.94044C90.4215 18.2171 98.0453 34.5254 105.635 50.8452C107.77 55.4419 108.731 60.3203 108.682 65.3942ZM80.5066 7.02007C80.0725 7.83937 79.854 8.20446 79.6758 8.5868C72.9978 22.877 66.2652 37.1443 59.6936 51.4834C58.423 54.2546 57.4513 57.2501 56.9138 60.2456C55.6776 67.1277 56.4251 73.8574 60.5273 79.7132C66.8028 88.6823 75.7633 91.1891 86.1008 89.2113C94.0408 87.6905 99.681 82.9904 102.633 75.4011C105.732 67.4381 105.025 59.5528 101.486 51.8974C95.9266 39.8724 90.2778 27.8906 84.6635 15.8886C83.3411 13.0599 82.013 10.234 80.5066 7.0172V7.02007Z" fill="#BDD3E0"/>
<path d="M63.517 65.2186C64.0632 62.6429 64.5721 60.0556 65.1757 57.4942C65.5092 56.0713 66.5125 55.3526 67.9412 55.824C69.4016 56.307 69.5827 57.5057 69.1342 58.8482C67.9499 62.3784 67.7429 65.9632 68.5535 69.5968C69.3441 73.1356 71.4311 75.6251 74.7227 77.1171C75.9904 77.6892 77.0254 78.4395 76.4878 80.0464C76.0364 81.3947 74.8204 81.6879 73.0697 80.975C67.2225 78.589 63.7988 72.782 63.517 65.2215V65.2186Z" fill="#BDD3E0"/>
<path d="M74.553 45.0499C72.6528 45.0901 71.5633 43.7246 72.1641 42.3016C73.3083 39.585 74.5099 36.8799 75.9502 34.3185C76.3037 33.689 77.7411 33.2434 78.5518 33.3958C79.7218 33.6142 80.0897 34.8734 79.6355 35.9399C78.454 38.7054 77.1662 41.4249 75.8122 44.1099C75.5563 44.6158 74.806 44.8745 74.5559 45.0528L74.553 45.0499Z" fill="#BDD3E0"/>
</g>
<defs>
<clipPath id="clip0_18_310">
<rect width="160.855" height="108.59" fill="white"/>
</clipPath>
</defs>
</svg>
