<svg width="142" height="116" viewBox="0 0 142 116" fill="none" xmlns="http://www.w3.org/2000/svg">
<g clip-path="url(#clip0_18_304)">
<path d="M51.6298 54.1452C56.8541 57.1088 63.8524 58.6846 71.6231 58.6846C72.8435 58.6846 74.0846 58.6459 75.3411 58.5661C83.5521 58.0512 91.2224 55.9192 95.8545 52.8604C99.7785 50.2701 107.771 48.648 116.237 48.7381C125.06 48.8282 133.349 50.7053 139.309 53.9263C140.159 54.3846 141.215 54.1066 141.724 53.2878C142.278 52.3943 141.969 51.2176 141.045 50.7156C132.342 45.9779 121.917 45.1463 116.27 45.0896C107.003 44.9944 98.401 46.8044 93.841 49.8144C85.9389 55.0309 65.4873 57.8117 53.427 50.9679C40.45 43.604 14.7999 42.3603 0.823916 51.349C-0.0643889 51.9206 -0.270373 53.1333 0.365602 53.9753C0.942356 54.74 2.00832 54.9254 2.81423 54.4078C15.4127 46.3152 39.6184 47.3271 51.6272 54.14L51.6298 54.1452Z" fill="#BDD3E0"/>
<path d="M93.8436 62.4335C85.9415 67.6501 65.4899 70.4334 53.4296 63.587C40.4526 56.2231 14.8025 54.9795 0.826479 63.9681C-0.0618254 64.5397 -0.267809 65.7524 0.368166 66.5944C0.94492 67.3591 2.01089 67.5445 2.8168 67.027C15.4153 58.9344 39.6209 59.9463 51.6298 66.7592C56.854 69.7228 63.8523 71.2985 71.6231 71.2985C72.8435 71.2985 74.0846 71.2599 75.3411 71.1801C83.5521 70.6651 91.2224 68.5332 95.8545 65.4744C99.781 62.8841 107.791 61.2646 116.237 61.3521C125.06 61.4422 133.349 63.3193 139.309 66.5403C140.159 66.9986 141.215 66.7206 141.724 65.9018C142.278 65.0083 141.969 63.8316 141.045 63.3296C132.342 58.5919 121.917 57.7603 116.27 57.7036C107.003 57.6109 98.4009 59.4184 93.841 62.4284L93.8436 62.4335Z" fill="#BDD3E0"/>
<path d="M59.694 89.7471C60.4536 90.4114 61.6045 90.3342 62.2688 89.5746L68.783 82.1283C68.9324 81.9584 69.213 82.0639 69.213 82.2905V113.34C69.213 114.347 70.0292 115.166 71.0385 115.166C72.0453 115.166 72.8641 114.349 72.8641 113.34V82.3523C72.8641 82.1232 73.1473 82.0202 73.2966 82.1927L79.6409 89.554C80.3001 90.3162 81.451 90.4037 82.2132 89.7446C82.9753 89.0854 83.0628 87.9345 82.4037 87.1723L72.4212 75.5883C71.6977 74.749 70.3974 74.7438 69.6662 75.578L59.5241 87.1698C58.8598 87.9293 58.937 89.0803 59.6966 89.7446L59.694 89.7471Z" fill="#BDD3E0"/>
<path d="M41.5829 25.4184C40.8234 24.7541 39.6724 24.8313 39.0081 25.5909L32.4939 33.0372C32.3446 33.2071 32.0639 33.1016 32.0639 32.875V1.82553C32.0639 0.818785 31.2477 0 30.2384 0C29.2316 0 28.4128 0.81621 28.4128 1.82553V32.8106C28.4128 33.0398 28.1296 33.1428 27.9803 32.9703L21.636 25.6089C20.9768 24.8468 19.8259 24.7592 19.0638 25.4184C18.3016 26.0775 18.2141 27.2285 18.8732 27.9906L28.8557 39.5746C29.5792 40.414 30.8795 40.4192 31.6107 39.5849L41.7554 27.9932C42.4197 27.2336 42.3425 26.0827 41.5829 25.4184Z" fill="#BDD3E0"/>
<path d="M123.546 25.4184C122.787 24.7541 121.636 24.8313 120.972 25.5909L114.457 33.0372C114.308 33.2071 114.027 33.1016 114.027 32.875V1.82553C114.027 0.818785 113.211 0 112.202 0C111.195 0 110.376 0.81621 110.376 1.82553V32.8106C110.376 33.0398 110.093 33.1428 109.944 32.9703L103.599 25.6089C102.94 24.8468 101.789 24.7592 101.027 25.4184C100.265 26.0775 100.178 27.2285 100.837 27.9906L110.819 39.5746C111.543 40.414 112.843 40.4192 113.574 39.5849L123.719 27.9932C124.383 27.2336 124.306 26.0827 123.546 25.4184Z" fill="#BDD3E0"/>
</g>
<defs>
<clipPath id="clip0_18_304">
<rect width="142" height="115.168" fill="white"/>
</clipPath>
</defs>
</svg>
