<svg width="71" height="112" viewBox="0 0 71 112" fill="none" xmlns="http://www.w3.org/2000/svg">
<g clip-path="url(#clip0_18_315)">
<path d="M11.2339 112C11.1087 112 10.9865 111.985 10.8644 111.952C10.4502 111.842 10.0866 111.541 9.84229 111.109C9.6635 110.793 9.23441 110.042 9.23441 110.042C8.48647 108.731 7.71171 107.375 7.01443 106.002C4.16273 100.391 2.14837 94.416 1.02199 88.2448C0.00884487 82.6665 -0.25338 77.0764 0.244252 71.6263C0.890876 64.5819 2.6907 57.9876 5.59603 52.0279C10.1492 42.6831 16.8956 35.6537 25.6414 31.1363C26.291 30.8025 26.9436 30.4688 27.5932 30.138C29.8638 28.9848 32.2089 27.7929 34.3991 26.446C41.205 22.2653 46.2112 17.1817 49.7005 10.9032C51.56 7.55686 52.6625 4.41909 53.0678 1.31709C53.1244 0.89097 53.333 0.524451 53.6548 0.286064C53.9081 0.0983345 54.221 0 54.5577 0C54.656 0 54.7573 0.0089395 54.8586 0.0268185C55.6692 0.166871 56.2115 0.971426 56.0953 1.85942C55.7317 4.58596 55.0911 6.86554 54.1405 8.82329C53.5237 10.0897 53.5535 11.231 53.7919 12.557C54.6292 17.2652 54.8437 21.8809 54.4236 26.2821C54.3223 27.3519 54.0928 28.4157 53.8723 29.4408C53.7472 30.0218 53.619 30.6148 53.5147 31.2018C53.4641 31.4849 53.482 31.8008 53.5654 32.0481C55.2371 37.1883 58.1186 42.1229 62.3738 47.129C63.2856 48.2018 64.2064 49.2656 65.1271 50.3294L65.7201 51.0147C66.3042 51.6882 66.337 52.2424 66.2625 52.5911C66.188 52.9457 65.9168 53.4523 65.0675 53.8486C62.5466 55.0226 59.9899 56.2384 57.5196 57.4154L55.4308 58.4077L55.839 58.9113C56.3754 59.5698 56.9147 60.2314 57.463 60.872C57.8593 61.3369 58.2765 61.7988 58.6788 62.2428C58.935 62.5258 59.1913 62.8089 59.4416 63.095C60.2313 63.9889 60.5501 65.0706 60.3177 66.0659C60.0853 67.0671 59.3135 67.9074 58.199 68.3663L57.4273 68.6852L58.0649 69.1262C58.2467 69.2513 58.4017 69.3795 58.5387 69.5106C59.2479 70.2019 59.6353 71.1137 59.6293 72.0702C59.6234 73.1489 59.1436 74.2008 58.2795 75.0292C55.7973 77.4071 54.1047 79.9519 53.0946 82.8125C52.7996 83.6558 52.7132 84.6064 52.6744 85.3394C52.585 86.9873 51.6613 88.0064 50.2012 88.06C49.7482 88.0779 49.2119 88.0958 48.6546 88.0958C47.4269 88.0958 46.4436 88.0094 45.5586 87.8246C43.574 87.4104 41.5924 86.883 39.6764 86.3705C38.7318 86.1172 37.7842 85.8669 36.8366 85.6255C36.8038 85.6166 36.7621 85.6106 36.7204 85.6076L36.5476 85.5927L36.4135 85.703C32.7781 88.7245 30.4955 92.0649 29.4347 95.9089C28.4484 99.4847 28.8328 103.174 30.579 106.875L30.6445 107.009C30.7756 107.28 30.9097 107.557 30.9663 107.87C31.1094 108.651 30.725 109.291 29.9681 109.542C29.7774 109.604 29.5867 109.637 29.4049 109.637C28.8089 109.637 28.3232 109.3 28.1087 108.734C27.9627 108.356 27.8137 107.977 27.6617 107.602L27.6349 107.533C27.1283 106.267 26.6039 104.962 26.3059 103.606C25.3166 99.1093 26.145 94.5531 28.7642 90.0684C29.828 88.2478 31.1332 86.5642 32.7542 84.9163L33.2191 84.4455L32.2149 84.0879C30.9723 83.6439 29.8102 83.2267 28.6331 82.7798C26.3237 81.8977 23.9905 80.977 21.7348 80.089L20.826 79.7314C20.2926 79.5228 19.9201 79.1861 19.7473 78.763C19.5983 78.4024 19.6132 77.9882 19.783 77.5978C20.0303 77.0406 20.5071 76.7337 21.1269 76.7337C21.4011 76.7337 21.6871 76.7933 21.9792 76.9125C27.3339 79.0907 34.42 81.8471 41.7593 83.8525C43.2581 84.2607 44.8166 84.5528 46.3274 84.8329C47.0068 84.961 47.6862 85.0862 48.3626 85.2232C48.5146 85.253 48.6814 85.259 48.8424 85.265C48.9109 85.265 48.9705 85.265 49.0211 85.265C49.0956 85.265 49.1552 85.2649 49.2029 85.262L49.5486 85.2471L49.6022 84.9074C49.6141 84.8359 49.626 84.7375 49.638 84.5945C49.9628 80.9353 51.8669 77.9942 53.6876 75.5984C54.3342 74.7461 55.0791 73.9565 55.8003 73.1936L56.2472 72.7198C56.5005 72.4517 56.6048 72.1567 56.5393 71.9123C56.4797 71.6888 56.2711 71.51 55.9552 71.4147C55.255 71.2031 54.4564 71.0988 53.5147 71.0988C52.8204 71.0988 52.1529 71.1525 51.5033 71.2031C51.3722 71.2121 51.2471 71.2299 51.1219 71.2448C50.9938 71.2597 50.8716 71.2746 50.7494 71.2865C50.6869 71.2925 50.6273 71.2955 50.5677 71.2955C49.7989 71.2955 49.2476 70.8336 49.0897 70.0618C48.9347 69.305 49.3132 68.6643 50.1028 68.3425C51.1309 67.9223 52.1589 67.5081 53.187 67.0909L55.4129 66.191C55.8837 66.0003 56.3694 65.8066 56.8462 65.604L57.3826 65.3775L56.9982 64.9395C56.6465 64.5372 56.2919 64.1379 55.9373 63.7357C55.2103 62.9132 54.4564 62.064 53.7412 61.1968C53.1899 60.5323 52.7459 59.835 52.4211 59.1288C51.8013 57.7819 52.3019 56.4857 53.6965 55.8272C55.8688 54.8051 58.0411 53.78 60.2462 52.7401L62.3052 51.7686L61.3517 50.6542C58.5536 47.3913 55.3831 43.5294 53.1899 39.012C52.3586 37.3016 51.6643 35.4988 50.9878 33.7556L50.9402 33.6364C50.7643 33.1804 50.5885 32.7245 50.4068 32.2716C50.2578 31.8961 50.2578 31.3776 50.4068 30.9187C51.6672 26.9854 51.6553 22.8613 51.4557 18.9875C51.402 17.9416 51.2977 16.8897 51.1964 15.9034L51.0802 14.7621L50.4306 15.7067C46.6552 21.1807 41.7086 25.6951 35.3079 29.5093C33.1297 30.8085 30.8233 31.9617 28.5914 33.0761L27.4382 33.6542C20.2628 37.2598 14.473 42.7099 10.2327 49.8586C6.99655 55.3117 4.81234 61.5038 3.73364 68.259C3.02146 72.7198 2.85161 77.2462 3.23004 81.713C4.04354 91.3349 7.05317 100.537 12.1755 109.056L12.256 109.19C12.3394 109.327 12.4228 109.467 12.5003 109.607C12.9771 110.477 12.7804 111.333 11.9967 111.788C11.7583 111.928 11.4901 112.003 11.2279 112.003L11.2339 112Z" fill="#BDD3E0"/>
<path d="M64.8471 44.4559C64.4627 44.4559 64.0158 44.301 63.7118 44.0566C63.4168 43.8242 62.9877 43.2789 63.4257 42.227C63.5718 41.8754 63.7237 41.5238 63.8727 41.1751L63.9085 41.0947C64.3882 39.9713 64.8859 38.8121 65.2822 37.6411C66.8973 32.8584 67.5558 27.6944 67.237 22.2979C67.0701 19.4462 66.8019 16.9402 66.4205 14.6368C65.8096 10.9507 64.8114 7.30636 63.4526 3.7991C63.2291 3.21803 63.086 2.59823 63.5807 2.0112C63.8966 1.63276 64.3316 1.41821 64.7756 1.41821C64.859 1.41821 64.9395 1.42417 65.0229 1.43907C65.5653 1.53443 66.0122 1.93968 66.2208 2.52075L66.2864 2.70252C66.9062 4.42188 67.5469 6.19787 68.0594 7.98874C69.6 13.3822 70.3956 18.8473 70.4224 24.2378C70.3896 31.4043 69.0487 37.6291 66.3192 43.264C66.2178 43.4726 65.8394 44.1729 65.2375 44.3904C65.1213 44.4321 64.9902 44.453 64.8471 44.453V44.4559Z" fill="#BDD3E0"/>
<path d="M44.1373 59.689C44.4055 59.0424 44.0986 58.3004 43.452 58.0322L38.2581 55.8838L40.3589 50.8091C40.6271 50.1625 40.3202 49.4205 39.6735 49.1523C39.0269 48.8841 38.2849 49.191 38.0167 49.8377L35.916 54.9123L29.6315 52.3109L31.7829 47.1171C32.0511 46.4705 31.7442 45.7285 31.0976 45.4603C30.4509 45.1921 29.709 45.499 29.4408 46.1457L27.2923 51.3395L22.2177 49.2387C21.571 48.9705 20.8291 49.2775 20.5609 49.9241C20.2927 50.5707 20.5996 51.3127 21.2462 51.5809L26.3209 53.6817L23.7195 59.9631L18.5257 57.8117C17.879 57.5435 17.1371 57.8504 16.8689 58.4971C16.6007 59.1437 16.9076 59.8857 17.5542 60.1539L22.7481 62.3053L20.6473 67.3799C20.3791 68.0266 20.686 68.7685 21.3327 69.0367C21.9793 69.3049 22.7213 68.998 22.9894 68.3514L25.0902 63.2767L31.3747 65.8781L29.2262 71.072C28.958 71.7186 29.265 72.4606 29.9116 72.7288C30.5582 72.9969 31.3002 72.69 31.5684 72.0434L33.7168 66.8495L38.7915 68.9503C39.4381 69.2185 40.1801 68.9116 40.4483 68.265C40.7165 67.6183 40.4095 66.8764 39.7629 66.6082L34.6883 64.5074L37.2897 58.2259L42.4835 60.3744C43.1301 60.6425 43.8721 60.3356 44.1403 59.689H44.1373ZM32.3461 63.5389L26.0617 60.9375L28.663 54.6561L34.9475 57.2575L32.3461 63.5389Z" fill="#BDD3E0"/>
</g>
<defs>
<clipPath id="clip0_18_315">
<rect width="70.4194" height="112" fill="white"/>
</clipPath>
</defs>
</svg>
